<?xml version="1.0" encoding="UTF-8"?>
<svg width="298px" height="134px" viewBox="0 0 298 134" version="1.1" xmlns="http://www.w3.org/2000/svg" xmlns:xlink="http://www.w3.org/1999/xlink">
    <title>空状态备份</title>
    <defs>
        <linearGradient x1="46.3152118%" y1="50%" x2="50%" y2="45.8944633%" id="linearGradient-1">
            <stop stop-color="#B4B8BF" stop-opacity="0" offset="0%"></stop>
            <stop stop-color="#B4B8BF" offset="100%"></stop>
        </linearGradient>
        <linearGradient x1="50%" y1="100%" x2="50%" y2="0%" id="linearGradient-2">
            <stop stop-color="#B4B8BF" stop-opacity="0" offset="0%"></stop>
            <stop stop-color="#B4B8BF" offset="100%"></stop>
        </linearGradient>
        <linearGradient x1="100%" y1="48.24745%" x2="0%" y2="48.4194737%" id="linearGradient-3">
            <stop stop-color="#B4B8BF" stop-opacity="0" offset="0%"></stop>
            <stop stop-color="#B4B8BF" stop-opacity="0.911806468" offset="91.1806468%"></stop>
            <stop stop-color="#B4B8BF" offset="100%"></stop>
        </linearGradient>
        <linearGradient x1="100%" y1="49.0328741%" x2="0%" y2="49.1278035%" id="linearGradient-4">
            <stop stop-color="#B4B8BF" stop-opacity="0" offset="0%"></stop>
            <stop stop-color="#B4B8BF" stop-opacity="0.911806468" offset="91.1806468%"></stop>
            <stop stop-color="#B4B8BF" offset="100%"></stop>
        </linearGradient>
    </defs>
    <g id="页面-1" stroke="none" stroke-width="1" fill="none" fill-rule="evenodd">
        <g id="收货地址-空" transform="translate(-39.000000, -224.000000)">
            <g id="空状态" transform="translate(38.000000, 224.000000)">
                <g id="background/default/mountain" transform="translate(0.000000, 40.720222)" opacity="0.16">
                    <path d="M31.270281,28.9305202 C31.270281,28.9305202 71.823635,15.1958844 90.3573055,15.1958844 C108.890976,15.1958844 149.473148,48.574263 177.435694,57.079541" id="路径-29" fill="url(#linearGradient-1)" transform="translate(104.352988, 36.137713) rotate(-12.000000) translate(-104.352988, -36.137713) "></path>
                    <path d="M0.42738425,78.6149584 C37.4991652,63.5140483 87.3606611,55.9635932 150.011872,55.9635932 C212.663082,55.9635932 262.524578,63.5140483 299.596359,78.6149584" id="路径-19" fill="url(#linearGradient-2)"></path>
                </g>
                <path d="M94.6833159,112.032985 L130.634426,121.131567 C130.803261,121.174296 130.97903,121.182181 131.151013,121.154741 L208.803615,108.765123 C209.502884,108.653553 209.979308,107.996239 209.867738,107.29697 C209.781674,106.757558 209.36331,106.331901 208.825467,106.236527 L165.347764,98.5268094 C165.20811,98.5020451 165.065314,98.5006243 164.925195,98.522605 L94.7991851,109.523359 C94.0996269,109.633099 93.6214853,110.289165 93.7312258,110.988724 C93.8108145,111.496074 94.1854579,111.906986 94.6833159,112.032985 Z" id="路径-34" fill="url(#linearGradient-3)" opacity="0.16"></path>
                <g id="objects/element/paper" transform="translate(82.390186, 0.356154)">
                    <polygon id="路径-32" fill="#D7DAE0" points="18.3852366 41.9891539 48.3893945 47.6058567 123.181638 40.6462935 80.3711667 36.066482"></polygon>
                    <polygon id="路径-33" fill="#C9CDD4" points="80.3711667 36.066482 80.3711667 46.7510882 123.181638 40.5794014"></polygon>
                    <path d="M74.7969601,32.1041283 C78.0064047,29.3769828 118.675406,29.2405352 124.641804,24.8669053 C130.608202,20.4932754 108.29361,16.1662953 108.29361,12.4160323 C108.29361,9.9158569 113.743008,7.21856348 124.641804,4.324152" id="路径-20" stroke="#E6E8ED" stroke-width="1.709537" stroke-linecap="round" stroke-dasharray="2.991689671439807" transform="translate(100.226323, 18.214140) rotate(-9.000000) translate(-100.226323, -18.214140) "></path>
                    <path d="M48.3893945,47.3831354 L121.311832,40.5163948 C122.251825,40.4278804 123.085595,41.1181401 123.174109,42.058133 C123.179126,42.1114089 123.181638,42.164891 123.181638,42.2184026 L123.181638,107.815789 C123.181638,108.697851 122.510548,109.435103 121.632371,109.517797 L48.3893945,116.414721 L48.3893945,116.414721 L48.3893945,47.3831354 Z" id="矩形" fill="#DFE2E8"></path>
                    <path d="M16.76296,47.683563 L46.358087,42.0117696 C47.2853632,41.8340607 48.1811306,42.4417049 48.3588395,43.3689811 C48.3791638,43.4750322 48.3893945,43.5827705 48.3893945,43.6907516 L48.3893945,109.349096 C48.3893945,110.177594 47.7953205,110.886844 46.9796625,111.032139 L16.76296,116.414721 L16.76296,116.414721 L16.76296,47.683563 Z" id="矩形" fill="#D7DAE0" transform="translate(32.576177, 79.018599) scale(-1, 1) translate(-32.576177, -79.018599) "></path>
                    <path d="M48.3893945,47.6704439 L31.8585537,66.2090259 C30.1166118,68.1625342 27.4124048,68.9503502 24.8938352,68.2380558 L3.41711417,62.1640734 C2.28146912,61.8428936 1.62121455,60.6619038 1.94239431,59.5262587 C2.03241388,59.2079625 2.19509651,58.9149099 2.41763167,58.6701772 L17.5304681,42.0498615 L17.5304681,42.0498615 L48.3893945,47.6704439 Z" id="路径-31" fill="#DFE2E8"></path>
                    <path d="M48.3893945,47.5059495 L62.2674301,68.3128396 C63.7659245,70.5594838 66.3868566,71.7896409 69.0725487,71.5068807 L135.886927,64.4724017 C137.295369,64.3241154 138.316928,63.0621375 138.168641,61.6536953 C138.121995,61.2106403 137.960725,60.7873815 137.700722,60.4256194 L123.265136,40.3403245 L123.265136,40.3403245 L48.3893945,47.5059495 Z" id="路径-30" fill="#E6E8ED"></path>
                    <path d="M53.7986099,96.3412924 L74.7404381,93.9280215 C75.4438962,93.8469572 76.0798772,94.351507 76.1609415,95.054965 C76.1665564,95.1036901 76.1693708,95.1526973 76.1693708,95.2017449 L76.1693708,109.143987 C76.1693708,109.795312 75.6810414,110.343147 75.033998,110.41771 L54.0921697,112.830981 C53.3887117,112.912046 52.7527307,112.407496 52.6716664,111.704038 C52.6660514,111.655313 52.663237,111.606305 52.663237,111.557258 L52.663237,97.6150158 C52.663237,96.9636903 53.1515665,96.4158556 53.7986099,96.3412924 Z" id="矩形" fill="#D7DAE0"></path>
                    <path d="M53.7986099,90.3579129 L74.7404381,87.944642 C75.4438962,87.8635777 76.0798772,88.3681275 76.1609415,89.0715855 C76.1665564,89.1203106 76.1693708,89.1693178 76.1693708,89.2183654 L76.1693708,90.33908 C76.1693708,90.9904055 75.6810414,91.5382402 75.033998,91.6128034 L54.0921697,94.0260743 C53.3887117,94.1071386 52.7527307,93.6025888 52.6716664,92.8991308 C52.6660514,92.8504056 52.663237,92.8013984 52.663237,92.7523509 L52.663237,91.6316363 C52.663237,90.9803108 53.1515665,90.4324761 53.7986099,90.3579129 Z" id="矩形" fill="#D7DAE0"></path>
                </g>
                <ellipse id="椭圆形备份-8" fill="url(#linearGradient-4)" opacity="0.16" cx="211.982588" cy="130.874555" rx="22.6513653" ry="2.99168975"></ellipse>
            </g>
        </g>
    </g>
</svg>